<svg xmlns="http://www.w3.org/2000/svg" viewBox="0 0 100 100">
  <defs>
    <linearGradient id="shieldGrad" x1="0%" y1="0%" x2="100%" y2="100%">
      <stop offset="0%" stop-color="#dfb23f"/>
      <stop offset="100%" stop-color="#b58c24"/>
    </linearGradient>
    <linearGradient id="qrGrad" x1="0%" y1="0%" x2="100%" y2="100%">
      <stop offset="0%" stop-color="#0f172a"/>
      <stop offset="100%" stop-color="#334155"/>
    </linearGradient>
  </defs>
  <!-- Outer Ring -->
  <circle cx="50" cy="50" r="46" fill="none" stroke="url(#shieldGrad)" stroke-width="4"/>
  <!-- Shield graphic for protection -->
  <path d="M50 20 L76 28 C76 52 62 70 50 80 C38 70 24 52 24 28 Z" fill="url(#shieldGrad)"/>
  <!-- QR Code Mock Squares in White -->
  <!-- Top-Left Finder -->
  <rect x="36" y="32" width="10" height="10" fill="#ffffff" rx="1"/>
  <rect x="39" y="35" width="4" height="4" fill="url(#qrGrad)"/>
  <!-- Top-Right Finder -->
  <rect x="54" y="32" width="10" height="10" fill="#ffffff" rx="1"/>
  <rect x="57" y="35" width="4" height="4" fill="url(#qrGrad)"/>
  <!-- Bottom-Left Finder -->
  <rect x="36" y="50" width="10" height="10" fill="#ffffff" rx="1"/>
  <rect x="39" y="53" width="4" height="4" fill="url(#qrGrad)"/>
  <!-- Code alignment dots -->
  <rect x="54" y="50" width="4" height="4" fill="#ffffff" rx="0.5"/>
  <rect x="60" y="56" width="4" height="4" fill="#ffffff" rx="0.5"/>
  <rect x="48" y="44" width="4" height="4" fill="#ffffff" rx="0.5"/>
  <rect x="54" y="44" width="4" height="4" fill="#ffffff" rx="0.5"/>
</svg>
